<mxfile host="Electron" modified="2024-02-17T13:40:26.081Z" agent="Mozilla/5.0 (Windows NT 10.0; Win64; x64) AppleWebKit/537.36 (KHTML, like Gecko) draw.io/22.1.2 Chrome/114.0.5735.289 Electron/25.9.4 Safari/537.36" etag="5nNDTKArg7nWu7Fz-bEs" version="22.1.2" type="device">
  <diagram name="Page-1" id="XlmHkq4UVpr5regQ50z8">
    <mxGraphModel dx="864" dy="516" grid="1" gridSize="10" guides="1" tooltips="1" connect="1" arrows="1" fold="1" page="1" pageScale="1" pageWidth="827" pageHeight="1169" math="0" shadow="0">
      <root>
        <mxCell id="0" />
        <mxCell id="1" parent="0" />
        <mxCell id="vNmq4q88K0SK1sNrBDFY-1" value="&lt;span style=&quot;font-weight: normal;&quot;&gt;TECHNICIEN INFRASTRUCTURE&lt;/span&gt;" style="swimlane;whiteSpace=wrap;html=1;" parent="1" vertex="1">
          <mxGeometry x="280" y="160" width="290" height="360" as="geometry" />
        </mxCell>
        <mxCell id="vNmq4q88K0SK1sNrBDFY-5" value="Tous les 3 mois" style="shape=parallelogram;perimeter=parallelogramPerimeter;whiteSpace=wrap;html=1;fixedSize=1;" parent="vNmq4q88K0SK1sNrBDFY-1" vertex="1">
          <mxGeometry x="20" y="40" width="120" height="20" as="geometry" />
        </mxCell>
        <mxCell id="vNmq4q88K0SK1sNrBDFY-6" value="&lt;font style=&quot;font-size: 10px;&quot;&gt;T1: INVENTAIRE ET MISE A JOUR DU&amp;nbsp; REGISTRE DES ACTIFS&lt;/font&gt;" style="rounded=0;whiteSpace=wrap;html=1;" parent="vNmq4q88K0SK1sNrBDFY-1" vertex="1">
          <mxGeometry x="10" y="80" width="230" height="40" as="geometry" />
        </mxCell>
        <mxCell id="vNmq4q88K0SK1sNrBDFY-8" value="&lt;font style=&quot;font-size: 10px;&quot;&gt;T2: MISE A JOUR DU REGISTRE D&#39;ATTRIBUTION&lt;/font&gt;" style="rounded=0;whiteSpace=wrap;html=1;" parent="vNmq4q88K0SK1sNrBDFY-1" vertex="1">
          <mxGeometry x="20" y="180" width="200" height="30" as="geometry" />
        </mxCell>
        <mxCell id="vNmq4q88K0SK1sNrBDFY-9" value="&lt;font style=&quot;font-size: 10px;&quot;&gt;T3: VERIFICATION DE L&#39;ETAT DE L&#39;ACTIF ET MISE A JOUR DU REGISTRE DE MAINTENANCE&lt;/font&gt;" style="rounded=0;whiteSpace=wrap;html=1;" parent="vNmq4q88K0SK1sNrBDFY-1" vertex="1">
          <mxGeometry x="20" y="269" width="240" height="50" as="geometry" />
        </mxCell>
        <mxCell id="vNmq4q88K0SK1sNrBDFY-11" value="Actif attribué" style="shape=parallelogram;perimeter=parallelogramPerimeter;whiteSpace=wrap;html=1;fixedSize=1;" parent="vNmq4q88K0SK1sNrBDFY-1" vertex="1">
          <mxGeometry x="50" y="140" width="100" height="20" as="geometry" />
        </mxCell>
        <mxCell id="vNmq4q88K0SK1sNrBDFY-12" value="" style="endArrow=classic;html=1;rounded=0;exitX=0.5;exitY=1;exitDx=0;exitDy=0;" parent="vNmq4q88K0SK1sNrBDFY-1" source="vNmq4q88K0SK1sNrBDFY-5" edge="1">
          <mxGeometry width="50" height="50" relative="1" as="geometry">
            <mxPoint x="110" y="130" as="sourcePoint" />
            <mxPoint x="80" y="80" as="targetPoint" />
          </mxGeometry>
        </mxCell>
        <mxCell id="vNmq4q88K0SK1sNrBDFY-15" value="" style="endArrow=classic;html=1;rounded=0;exitX=0.5;exitY=1;exitDx=0;exitDy=0;" parent="vNmq4q88K0SK1sNrBDFY-1" source="vNmq4q88K0SK1sNrBDFY-11" edge="1">
          <mxGeometry width="50" height="50" relative="1" as="geometry">
            <mxPoint x="150" y="180" as="sourcePoint" />
            <mxPoint x="100" y="180" as="targetPoint" />
          </mxGeometry>
        </mxCell>
        <mxCell id="vNmq4q88K0SK1sNrBDFY-16" value="" style="endArrow=classic;html=1;rounded=0;" parent="vNmq4q88K0SK1sNrBDFY-1" edge="1">
          <mxGeometry width="50" height="50" relative="1" as="geometry">
            <mxPoint x="121" y="248" as="sourcePoint" />
            <mxPoint x="121" y="268" as="targetPoint" />
          </mxGeometry>
        </mxCell>
        <mxCell id="vNmq4q88K0SK1sNrBDFY-19" value="" style="endArrow=none;html=1;rounded=0;" parent="vNmq4q88K0SK1sNrBDFY-1" edge="1">
          <mxGeometry width="50" height="50" relative="1" as="geometry">
            <mxPoint x="219" y="345" as="sourcePoint" />
            <mxPoint x="320" y="345" as="targetPoint" />
          </mxGeometry>
        </mxCell>
        <mxCell id="vNmq4q88K0SK1sNrBDFY-25" value="&lt;font style=&quot;font-size: 11px;&quot;&gt;D8&lt;/font&gt;" style="shape=document;whiteSpace=wrap;html=1;boundedLbl=1;" parent="vNmq4q88K0SK1sNrBDFY-1" vertex="1">
          <mxGeometry x="30" y="335" width="20" height="20" as="geometry" />
        </mxCell>
        <mxCell id="vNmq4q88K0SK1sNrBDFY-33" value="" style="endArrow=classic;startArrow=classic;html=1;rounded=0;entryX=0.079;entryY=0.98;entryDx=0;entryDy=0;entryPerimeter=0;" parent="vNmq4q88K0SK1sNrBDFY-1" edge="1">
          <mxGeometry width="50" height="50" relative="1" as="geometry">
            <mxPoint x="41" y="336" as="sourcePoint" />
            <mxPoint x="39.960000000000036" y="317" as="targetPoint" />
          </mxGeometry>
        </mxCell>
        <mxCell id="vNmq4q88K0SK1sNrBDFY-34" value="" style="endArrow=classic;startArrow=classic;html=1;rounded=0;" parent="vNmq4q88K0SK1sNrBDFY-1" edge="1">
          <mxGeometry width="50" height="50" relative="1" as="geometry">
            <mxPoint x="200" y="140" as="sourcePoint" />
            <mxPoint x="200" y="120" as="targetPoint" />
          </mxGeometry>
        </mxCell>
        <mxCell id="vNmq4q88K0SK1sNrBDFY-26" value="&lt;font style=&quot;font-size: 10px;&quot;&gt;D5&lt;/font&gt;" style="shape=document;whiteSpace=wrap;html=1;boundedLbl=1;" parent="vNmq4q88K0SK1sNrBDFY-1" vertex="1">
          <mxGeometry x="110" y="230" width="20" height="20" as="geometry" />
        </mxCell>
        <mxCell id="vNmq4q88K0SK1sNrBDFY-38" value="" style="endArrow=classic;startArrow=classic;html=1;rounded=0;" parent="vNmq4q88K0SK1sNrBDFY-1" edge="1">
          <mxGeometry width="50" height="50" relative="1" as="geometry">
            <mxPoint x="120" y="209" as="sourcePoint" />
            <mxPoint x="120" y="229.71067811865476" as="targetPoint" />
          </mxGeometry>
        </mxCell>
        <mxCell id="8qRZtd4RQGUYw1HQ1qV5-1" value="D8" style="shape=document;whiteSpace=wrap;html=1;boundedLbl=1;" vertex="1" parent="vNmq4q88K0SK1sNrBDFY-1">
          <mxGeometry x="180" y="140" width="40" height="30" as="geometry" />
        </mxCell>
        <mxCell id="vNmq4q88K0SK1sNrBDFY-2" value="&lt;span style=&quot;font-weight: normal;&quot;&gt;EXTERIEUR&lt;/span&gt;" style="swimlane;whiteSpace=wrap;html=1;" parent="1" vertex="1">
          <mxGeometry x="80" y="160" width="200" height="360" as="geometry" />
        </mxCell>
        <mxCell id="vNmq4q88K0SK1sNrBDFY-4" value="EMPLOYE" style="rounded=1;whiteSpace=wrap;html=1;dashed=1;" parent="vNmq4q88K0SK1sNrBDFY-2" vertex="1">
          <mxGeometry x="40" y="70" width="120" height="60" as="geometry" />
        </mxCell>
        <mxCell id="vNmq4q88K0SK1sNrBDFY-13" value="" style="endArrow=none;html=1;rounded=0;entryX=0.5;entryY=1;entryDx=0;entryDy=0;" parent="vNmq4q88K0SK1sNrBDFY-2" target="vNmq4q88K0SK1sNrBDFY-4" edge="1">
          <mxGeometry width="50" height="50" relative="1" as="geometry">
            <mxPoint x="100" y="150" as="sourcePoint" />
            <mxPoint x="150" y="170" as="targetPoint" />
          </mxGeometry>
        </mxCell>
        <mxCell id="vNmq4q88K0SK1sNrBDFY-3" value="&lt;span style=&quot;font-weight: normal;&quot;&gt;COMPTABLE&lt;/span&gt;" style="swimlane;whiteSpace=wrap;html=1;" parent="1" vertex="1">
          <mxGeometry x="570" y="160" width="230" height="360" as="geometry" />
        </mxCell>
        <mxCell id="vNmq4q88K0SK1sNrBDFY-10" value="&lt;font style=&quot;font-size: 10px;&quot;&gt;T4: EMMAGASINAGE DE L&#39;ACTIF INFORMATIQUE&lt;/font&gt;" style="rounded=0;whiteSpace=wrap;html=1;" parent="vNmq4q88K0SK1sNrBDFY-3" vertex="1">
          <mxGeometry x="50" y="110" width="170" height="40" as="geometry" />
        </mxCell>
        <mxCell id="vNmq4q88K0SK1sNrBDFY-17" value="Actif attribué" style="shape=parallelogram;perimeter=parallelogramPerimeter;whiteSpace=wrap;html=1;fixedSize=1;" parent="vNmq4q88K0SK1sNrBDFY-3" vertex="1">
          <mxGeometry x="60" y="55" width="100" height="20" as="geometry" />
        </mxCell>
        <mxCell id="vNmq4q88K0SK1sNrBDFY-20" value="" style="endArrow=none;html=1;rounded=0;" parent="vNmq4q88K0SK1sNrBDFY-3" edge="1">
          <mxGeometry width="50" height="50" relative="1" as="geometry">
            <mxPoint x="30" y="345" as="sourcePoint" />
            <mxPoint x="30" y="65" as="targetPoint" />
          </mxGeometry>
        </mxCell>
        <mxCell id="vNmq4q88K0SK1sNrBDFY-21" value="" style="endArrow=classic;html=1;rounded=0;entryX=0;entryY=0.5;entryDx=0;entryDy=0;" parent="vNmq4q88K0SK1sNrBDFY-3" edge="1">
          <mxGeometry width="50" height="50" relative="1" as="geometry">
            <mxPoint x="30" y="64" as="sourcePoint" />
            <mxPoint x="70" y="64" as="targetPoint" />
          </mxGeometry>
        </mxCell>
        <mxCell id="vNmq4q88K0SK1sNrBDFY-22" value="" style="endArrow=classic;html=1;rounded=0;exitX=0.5;exitY=1;exitDx=0;exitDy=0;entryX=0.353;entryY=-0.05;entryDx=0;entryDy=0;entryPerimeter=0;" parent="vNmq4q88K0SK1sNrBDFY-3" source="vNmq4q88K0SK1sNrBDFY-17" target="vNmq4q88K0SK1sNrBDFY-10" edge="1">
          <mxGeometry width="50" height="50" relative="1" as="geometry">
            <mxPoint x="160" y="100" as="sourcePoint" />
            <mxPoint x="210" y="50" as="targetPoint" />
          </mxGeometry>
        </mxCell>
        <mxCell id="vNmq4q88K0SK1sNrBDFY-14" value="" style="endArrow=classic;html=1;rounded=0;" parent="1" target="vNmq4q88K0SK1sNrBDFY-11" edge="1">
          <mxGeometry width="50" height="50" relative="1" as="geometry">
            <mxPoint x="180" y="310" as="sourcePoint" />
            <mxPoint x="440" y="240" as="targetPoint" />
          </mxGeometry>
        </mxCell>
        <mxCell id="vj_7Ew4u0dl_LCW9TtWd-3" value="Actif attribué" style="shape=parallelogram;perimeter=parallelogramPerimeter;whiteSpace=wrap;html=1;fixedSize=1;" parent="1" vertex="1">
          <mxGeometry x="412" y="491" width="100" height="20" as="geometry" />
        </mxCell>
        <mxCell id="vj_7Ew4u0dl_LCW9TtWd-4" value="Actif attribué" style="shape=parallelogram;perimeter=parallelogramPerimeter;whiteSpace=wrap;html=1;fixedSize=1;" parent="1" vertex="1">
          <mxGeometry x="640" y="345" width="100" height="20" as="geometry" />
        </mxCell>
        <mxCell id="vj_7Ew4u0dl_LCW9TtWd-5" value="" style="endArrow=classic;html=1;rounded=0;exitX=0.5;exitY=1;exitDx=0;exitDy=0;entryX=0.353;entryY=-0.05;entryDx=0;entryDy=0;entryPerimeter=0;" parent="1" edge="1">
          <mxGeometry width="50" height="50" relative="1" as="geometry">
            <mxPoint x="690" y="311" as="sourcePoint" />
            <mxPoint x="690" y="344" as="targetPoint" />
          </mxGeometry>
        </mxCell>
        <mxCell id="vj_7Ew4u0dl_LCW9TtWd-6" value="" style="endArrow=classic;html=1;rounded=0;" parent="1" edge="1">
          <mxGeometry width="50" height="50" relative="1" as="geometry">
            <mxPoint x="468" y="480" as="sourcePoint" />
            <mxPoint x="468" y="490" as="targetPoint" />
          </mxGeometry>
        </mxCell>
      </root>
    </mxGraphModel>
  </diagram>
</mxfile>
